REM DIRINDEX 1\2\5,1\2\6,1\2\7,1\2\8,1\3\9,1\3\10,1\3\11,1\4\12,1\4\13,1\4\14,1\4\15,1\4\16
REM DIRNAME folder01,folder02,folder03,folder04,folder05,folder06,folder07,folder08,folder09,folder10,folder11,folder12,folder13,folder14,folder15,folder16
TITLE ""
FILE "1200_2_sec05_1441_1455.mp3" MP3
  TRACK 01 AUDIO
    TITLE "0:"
    INDEX 01 00:00:00
  TRACK 02 AUDIO
    TITLE "11:cjc034_02995"
    INDEX 01 00:00:15
  TRACK 03 AUDIO
    TITLE "0:"
    INDEX 01 00:05:05
  TRACK 04 AUDIO
    TITLE "11:cjc034_02996"
    INDEX 01 00:05:57
  TRACK 05 AUDIO
    TITLE "0:"
    INDEX 01 00:07:33
  TRACK 06 AUDIO
    TITLE "10:cjc034_02997"
    INDEX 01 00:08:26
  TRACK 07 AUDIO
    TITLE "0:"
    INDEX 01 00:10:06
  TRACK 08 AUDIO
    TITLE "9:cjc034_02998"
    INDEX 01 00:10:18
  TRACK 09 AUDIO
    TITLE "0:"
    INDEX 01 00:11:31
  TRACK 10 AUDIO
    TITLE "10:cjc034_02999"
    INDEX 01 00:12:16
  TRACK 11 AUDIO
    TITLE "0:"
    INDEX 01 00:13:12
  TRACK 12 AUDIO
    TITLE "9:cjc034_03000"
    INDEX 01 00:13:14
  TRACK 13 AUDIO
    TITLE "0:"
    INDEX 01 00:14:47
  TRACK 14 AUDIO
    TITLE "10:cjc034_03001"
    INDEX 01 00:15:30
  TRACK 15 AUDIO
    TITLE "0:"
    INDEX 01 00:16:63
  TRACK 16 AUDIO
    TITLE "9:cjc034_03002"
    INDEX 01 00:16:65
  TRACK 17 AUDIO
    TITLE "0:"
    INDEX 01 00:18:15
  TRACK 18 AUDIO
    TITLE "10:cjc034_03003"
    INDEX 01 00:18:72
  TRACK 19 AUDIO
    TITLE "0:"
    INDEX 01 00:19:73
  TRACK 20 AUDIO
    TITLE "9:cjc034_03004"
    INDEX 01 00:20:06
  TRACK 21 AUDIO
    TITLE "0:"
    INDEX 01 00:21:25
  TRACK 22 AUDIO
    TITLE "10:cjc034_03005"
    INDEX 01 00:22:05
  TRACK 23 AUDIO
    TITLE "0:"
    INDEX 01 00:23:12
  TRACK 24 AUDIO
    TITLE "9:cjc034_03006"
    INDEX 01 00:23:20
  TRACK 25 AUDIO
    TITLE "0:"
    INDEX 01 00:24:18
  TRACK 26 AUDIO
    TITLE "10:cjc034_03007"
    INDEX 01 00:25:01
  TRACK 27 AUDIO
    TITLE "0:"
    INDEX 01 00:26:26
  TRACK 28 AUDIO
    TITLE "9:cjc034_03008"
    INDEX 01 00:26:28
  TRACK 29 AUDIO
    TITLE "0:"
    INDEX 01 00:27:34
  TRACK 30 AUDIO
    TITLE "10:cjc034_03009"
    INDEX 01 00:28:17
  TRACK 31 AUDIO
    TITLE "0:"
    INDEX 01 00:30:20
  TRACK 32 AUDIO
    TITLE "9:cjc034_03010"
    INDEX 01 00:30:22
  TRACK 33 AUDIO
    TITLE "0:"
    INDEX 01 00:31:47
  TRACK 34 AUDIO
    TITLE "10:cjc034_03011"
    INDEX 01 00:32:27
  TRACK 35 AUDIO
    TITLE "0:"
    INDEX 01 00:33:13
  TRACK 36 AUDIO
    TITLE "9:cjc034_03012"
    INDEX 01 00:33:15
  TRACK 37 AUDIO
    TITLE "0:"
    INDEX 01 00:34:36
  TRACK 38 AUDIO
    TITLE "10:cjc034_03013"
    INDEX 01 00:35:19
  TRACK 39 AUDIO
    TITLE "0:"
    INDEX 01 00:37:36
  TRACK 40 AUDIO
    TITLE "9:cjc034_03014"
    INDEX 01 00:37:38
  TRACK 41 AUDIO
    TITLE "0:"
    INDEX 01 00:38:59
  TRACK 42 AUDIO
    TITLE "10:cjc034_03015"
    INDEX 01 00:39:39
  TRACK 43 AUDIO
    TITLE "0:"
    INDEX 01 00:42:41
  TRACK 44 AUDIO
    TITLE "9:cjc034_03016"
    INDEX 01 00:42:45
  TRACK 45 AUDIO
    TITLE "0:"
    INDEX 01 00:43:64
  TRACK 46 AUDIO
    TITLE "10:cjc034_03017"
    INDEX 01 00:44:50
  TRACK 47 AUDIO
    TITLE "0:"
    INDEX 01 00:47:38
  TRACK 48 AUDIO
    TITLE "9:cjc034_03018"
    INDEX 01 00:47:40
  TRACK 49 AUDIO
    TITLE "0:"
    INDEX 01 00:48:65
  TRACK 50 AUDIO
    TITLE "10:cjc034_03019"
    INDEX 01 00:49:47
  TRACK 51 AUDIO
    TITLE "0:"
    INDEX 01 00:50:42
  TRACK 52 AUDIO
    TITLE "9:cjc034_03020"
    INDEX 01 00:50:48
  TRACK 53 AUDIO
    TITLE "0:"
    INDEX 01 00:51:52
  TRACK 54 AUDIO
    TITLE "10:cjc034_03021"
    INDEX 01 00:52:34
  TRACK 55 AUDIO
    TITLE "0:"
    INDEX 01 00:53:23
  TRACK 56 AUDIO
    TITLE "9:cjc034_03022"
    INDEX 01 00:53:27
  TRACK 57 AUDIO
    TITLE "0:"
    INDEX 01 00:54:44
  TRACK 58 AUDIO
    TITLE "10:cjc034_03023"
    INDEX 01 00:55:22
  TRACK 59 AUDIO
    TITLE "0:"
    INDEX 01 00:57:66
  TRACK 60 AUDIO
    TITLE "9:cjc034_03024"
    INDEX 01 00:57:70
  TRACK 61 AUDIO
    TITLE "0:"
    INDEX 01 00:59:14
  TRACK 62 AUDIO
    TITLE "10:cjc034_03025"
    INDEX 01 00:59:71
  TRACK 63 AUDIO
    TITLE "0:"
    INDEX 01 01:02:30
  TRACK 64 AUDIO
    TITLE "9:cjc034_03026"
    INDEX 01 01:02:34
  TRACK 65 AUDIO
    TITLE "0:"
    INDEX 01 01:03:65
